<svg width="21" height="21" viewBox="0 0 21 21" fill="none" xmlns="http://www.w3.org/2000/svg">
<g clip-path="url(#clip0_612_58)">
<path d="M21 10.5C21 16.2991 16.2991 21 10.5 21C4.70094 21 0 16.2991 0 10.5C0 4.70094 4.70094 0 10.5 0C16.2991 0 21 4.70094 21 10.5Z" fill="#4A7AFF"/>
<path d="M13.71 3.08893V5.46655C13.71 5.46655 10.9802 5.07033 10.9802 6.83144V8.59255H13.4458L13.1377 11.2783H10.9802V18.2788H8.25039V11.2783L5.91682 11.2342V8.59255H8.20633V6.56724C8.20633 6.56724 8.05524 3.55436 11.0242 3.00097C12.2571 2.77105 13.71 3.08893 13.71 3.08893Z" fill="white"/>
<path d="M0.957329 -176.035C-76.504 -176.035 -150.061 -182.925 -178.157 -110.819C-189.763 -81.0374 -188.077 -42.36 -188.077 13.0213C-188.077 61.6186 -189.635 107.293 -178.157 136.84C-150.125 208.989 -75.9707 202.077 0.914665 202.077C75.0907 202.077 151.571 209.8 180.008 136.84C191.635 106.76 189.928 68.6586 189.928 13.0213C189.928 -60.8347 194.003 -108.515 158.184 -144.312C121.917 -180.579 72.872 -176.035 0.872002 -176.035H0.957329ZM-15.9813 -141.965C145.597 -142.221 166.163 -160.184 154.813 89.352C150.781 177.608 83.5813 167.923 0.978645 167.923C-149.635 167.923 -153.965 163.613 -153.965 12.936C-153.965 -139.491 -142.019 -141.88 -15.9813 -142.008V-141.965ZM101.864 -110.584C89.3413 -110.584 79.1867 -100.429 79.1867 -87.9067C79.1867 -75.384 89.3413 -65.2294 101.864 -65.2294C114.387 -65.2294 124.541 -75.384 124.541 -87.9067C124.541 -100.429 114.387 -110.584 101.864 -110.584ZM0.957329 -84.0667C-52.6533 -84.0667 -96.1093 -40.5894 -96.1093 13.0213C-96.1093 66.632 -52.6533 110.088 0.957329 110.088C54.568 110.088 98.0027 66.632 98.0027 13.0213C98.0027 -40.5894 54.568 -84.0667 0.957329 -84.0667ZM0.957329 -49.9974C84.264 -49.9974 84.3707 76.04 0.957329 76.04C-82.328 76.04 -82.456 -49.9974 0.957329 -49.9974Z" fill="white"/>
</g>
<defs>
<clipPath id="clip0_612_58">
<rect width="21" height="21" fill="white"/>
</clipPath>
</defs>
</svg>
